<svg xmlns="http://www.w3.org/2000/svg" width="1340" height="712" viewBox="0 0 1340 712">
<style>text { font-family: Arial, sans-serif; fill: #172033; } .title { font-size: 25px; font-weight: 700; } .label { font-size: 15px; } .small { font-size: 13px; fill: #4b5563; } .value { font-size: 17px; font-weight: 600; }</style>
<rect width="100%" height="100%" fill="#ffffff"/><text x="40" y="42" class="title">Content-fidelity metrics</text><text x="40" y="74" class="small">All values are mean ± standard deviation across examples. Same/cross identifies the source capture for LR-B.</text><text x="40" y="98" class="small">Metrics ending in _std_over_samples measure variability of that metric across the generated samples for one input.</text><rect x="40" y="109" width="1260" height="25" fill="#e2e8f0"/><text x="40" y="128" class="label">Metric</text><text x="280" y="128" class="label">Interpretation</text><text x="550" y="128" class="label">Same capture</text><text x="805" y="128" class="label">Cross capture</text><text x="1060" y="128" class="label">Cross − same</text><text x="40" y="150" class="small">hr_lowpass_l1</text><text x="280" y="150" class="small">lower = better content match</text><text x="550" y="150" class="small" style="fill:#2563eb">0.03046 ± 0.00887</text><text x="805" y="150" class="small" style="fill:#dc2626">0.03046 ± 0.00915</text><text x="1060" y="150" class="small">+0.00000 ± 0.00453</text><rect x="40" y="161" width="1260" height="31" fill="#f8fafc"/><text x="40" y="181" class="small">hr_lowpass_psnr</text><text x="280" y="181" class="small">higher = better content match</text><text x="550" y="181" class="small" style="fill:#2563eb">29.18095 ± 2.88138</text><text x="805" y="181" class="small" style="fill:#dc2626">29.23841 ± 2.91637</text><text x="1060" y="181" class="small">+0.05746 ± 1.04161</text><text x="40" y="212" class="small">hr_lowpass_ssim</text><text x="280" y="212" class="small">higher = better content match</text><text x="550" y="212" class="small" style="fill:#2563eb">0.94037 ± 0.04038</text><text x="805" y="212" class="small" style="fill:#dc2626">0.93557 ± 0.05514</text><text x="1060" y="212" class="small">-0.00480 ± 0.02473</text><rect x="40" y="223" width="1260" height="31" fill="#f8fafc"/><text x="40" y="243" class="small">hr_gradient_cosine</text><text x="280" y="243" class="small">higher = better edge/layout match</text><text x="550" y="243" class="small" style="fill:#2563eb">0.97276 ± 0.02390</text><text x="805" y="243" class="small" style="fill:#dc2626">0.97021 ± 0.02939</text><text x="1060" y="243" class="small">-0.00255 ± 0.01325</text><text x="40" y="274" class="small">target_lowpass_l1</text><text x="280" y="274" class="small">lower = closer to target LR-A</text><text x="550" y="274" class="small" style="fill:#2563eb">0.02874 ± 0.00773</text><text x="805" y="274" class="small" style="fill:#dc2626">0.02981 ± 0.00978</text><text x="1060" y="274" class="small">+0.00106 ± 0.00442</text><rect x="40" y="285" width="1260" height="31" fill="#f8fafc"/><text x="40" y="305" class="small">target_lowpass_ssim</text><text x="280" y="305" class="small">higher = closer to target LR-A</text><text x="550" y="305" class="small" style="fill:#2563eb">0.93729 ± 0.05309</text><text x="805" y="305" class="small" style="fill:#dc2626">0.92737 ± 0.06885</text><text x="1060" y="305" class="small">-0.00991 ± 0.03047</text><text x="40" y="336" class="small">hr_lowpass_l1_std_over_samples</text><text x="280" y="336" class="small">lower = better content match</text><text x="550" y="336" class="small" style="fill:#2563eb">0.00752 ± 0.00295</text><text x="805" y="336" class="small" style="fill:#dc2626">0.00802 ± 0.00275</text><text x="1060" y="336" class="small">+0.00050 ± 0.00239</text><rect x="40" y="347" width="1260" height="31" fill="#f8fafc"/><text x="40" y="367" class="small">hr_lowpass_psnr_std_over_samples</text><text x="280" y="367" class="small">higher = better content match</text><text x="550" y="367" class="small" style="fill:#2563eb">1.97674 ± 1.05496</text><text x="805" y="367" class="small" style="fill:#dc2626">2.09229 ± 0.91042</text><text x="1060" y="367" class="small">+0.11555 ± 0.60385</text><text x="40" y="398" class="small">hr_lowpass_ssim_std_over_samples</text><text x="280" y="398" class="small">higher = better content match</text><text x="550" y="398" class="small" style="fill:#2563eb">0.00740 ± 0.00524</text><text x="805" y="398" class="small" style="fill:#dc2626">0.01102 ± 0.01394</text><text x="1060" y="398" class="small">+0.00362 ± 0.01257</text><rect x="40" y="409" width="1260" height="31" fill="#f8fafc"/><text x="40" y="429" class="small">hr_gradient_cosine_std_over_samples</text><text x="280" y="429" class="small">higher = better edge/layout match</text><text x="550" y="429" class="small" style="fill:#2563eb">0.00426 ± 0.00537</text><text x="805" y="429" class="small" style="fill:#dc2626">0.00667 ± 0.01060</text><text x="1060" y="429" class="small">+0.00241 ± 0.00966</text><text x="40" y="460" class="small">target_lowpass_l1_std_over_samples</text><text x="280" y="460" class="small">lower = closer to target LR-A</text><text x="550" y="460" class="small" style="fill:#2563eb">0.00698 ± 0.00310</text><text x="805" y="460" class="small" style="fill:#dc2626">0.00708 ± 0.00327</text><text x="1060" y="460" class="small">+0.00010 ± 0.00268</text><rect x="40" y="471" width="1260" height="31" fill="#f8fafc"/><text x="40" y="491" class="small">target_lowpass_ssim_std_over_samples</text><text x="280" y="491" class="small">higher = closer to target LR-A</text><text x="550" y="491" class="small" style="fill:#2563eb">0.00700 ± 0.00416</text><text x="805" y="491" class="small" style="fill:#dc2626">0.01055 ± 0.01374</text><text x="1060" y="491" class="small">+0.00355 ± 0.01251</text><text x="40" y="522" class="small">variance_pixel_l1</text><text x="280" y="522" class="small">higher = more sample variation</text><text x="550" y="522" class="small" style="fill:#2563eb">0.03442 ± 0.00951</text><text x="805" y="522" class="small" style="fill:#dc2626">0.03420 ± 0.00970</text><text x="1060" y="522" class="small">-0.00021 ± 0.00488</text><rect x="40" y="533" width="1260" height="31" fill="#f8fafc"/><text x="40" y="553" class="small">variance_lowpass_l1</text><text x="280" y="553" class="small">lower = more stable layout</text><text x="550" y="553" class="small" style="fill:#2563eb">0.02742 ± 0.00660</text><text x="805" y="553" class="small" style="fill:#dc2626">0.02732 ± 0.00689</text><text x="1060" y="553" class="small">-0.00009 ± 0.00359</text><text x="40" y="584" class="small">variance_lowpass_gradient_cosine</text><text x="280" y="584" class="small">higher = more stable edges</text><text x="550" y="584" class="small" style="fill:#2563eb">0.97351 ± 0.02862</text><text x="805" y="584" class="small" style="fill:#dc2626">0.97329 ± 0.02809</text><text x="1060" y="584" class="small">-0.00022 ± 0.01657</text><rect x="40" y="595" width="1260" height="31" fill="#f8fafc"/><text x="40" y="615" class="small">variance_pixel_std</text><text x="280" y="615" class="small">higher = more pixel variation</text><text x="550" y="615" class="small" style="fill:#2563eb">0.02925 ± 0.00810</text><text x="805" y="615" class="small" style="fill:#dc2626">0.02905 ± 0.00832</text><text x="1060" y="615" class="small">-0.00020 ± 0.00418</text></svg>